<?xml version="1.0" standalone="no"?>
<!DOCTYPE svg PUBLIC "-//W3C//DTD SVG 20010904//EN"
 "http://www.w3.org/TR/2001/REC-SVG-20010904/DTD/svg10.dtd">
<svg version="1.0" xmlns="http://www.w3.org/2000/svg"
 width="164.000000pt" height="164.000000pt" viewBox="0 0 164.000000 164.000000"
 preserveAspectRatio="xMidYMid meet">
<metadata>
Created by potrace 1.11, written by Peter Selinger 2001-2013
</metadata>
<g transform="translate(0.000000,164.000000) scale(0.100000,-0.100000)"
fill="#000000" stroke="none">
<path d="M10 1500 l0 -139 133 -63 c72 -35 156 -75 184 -89 l53 -24 0 -361 0
-360 -42 -20 c-24 -12 -107 -53 -185 -92 l-143 -72 0 -135 c0 -74 4 -135 8
-135 4 0 46 20 92 43 47 24 211 108 365 187 154 78 343 175 420 215 204 105
568 292 658 337 42 21 77 41 77 44 0 3 -278 142 -617 310 -340 168 -694 344
-788 391 -93 46 -180 88 -192 93 l-23 10 0 -140z m849 -546 c58 -27 139 -65
180 -85 l75 -37 -185 -93 c-213 -107 -319 -159 -325 -159 -2 0 -4 113 -4 250
l0 250 78 -38 c42 -22 124 -61 181 -88z"/>
</g>
</svg>
